<svg xmlns="http://www.w3.org/2000/svg" viewBox="0 0 97 97"><title>image masking</title><g id="Layer_2" data-name="Layer 2"><g id="Layer_1-2" data-name="Layer 1"><path d="M53.75,35a6.8,6.8,0,1,0,6.8-6.79A6.8,6.8,0,0,0,53.75,35Zm6.8,3.79A3.79,3.79,0,1,1,64.34,35,3.8,3.8,0,0,1,60.55,38.75Z"/><path d="M43.33,37.8a3.42,3.42,0,0,0-3,1.7L25.84,64.67a3.42,3.42,0,0,0,3,5.13H48.35a3.1,3.1,0,0,0,.54,0H68.62A2.69,2.69,0,0,0,71,68.48h0a2.72,2.72,0,0,0,0-2.73L61.12,48.66a2.72,2.72,0,0,0-2.37-1.36,2.69,2.69,0,0,0-2.36,1.36L54,52.82,46.29,39.5A3.38,3.38,0,0,0,43.33,37.8ZM43,41a.42.42,0,0,1,.37-.21.39.39,0,0,1,.36.2l8.56,14.82-5.73,9.93a2.66,2.66,0,0,0-.35,1H28.8a.43.43,0,0,1-.37-.21.4.4,0,0,1,0-.42Zm15.79,9.56,9.4,16.28H50a1.31,1.31,0,0,0-.39,0h-.21Z"/><path d="M22.69,1.5A1.5,1.5,0,0,0,24.19,3h6.89a1.5,1.5,0,0,0,0-3H24.19A1.5,1.5,0,0,0,22.69,1.5Z"/><path d="M58.68,0h-6.9a1.5,1.5,0,0,0,0,3h6.9a1.5,1.5,0,0,0,0-3Z"/><path d="M24.51,94h-6.9a1.5,1.5,0,0,0,0,3h6.9a1.5,1.5,0,1,0,0-3Z"/><path d="M0,7.27a1.5,1.5,0,0,0,3,0V3.5A.5.5,0,0,1,3.5,3,1.5,1.5,0,0,0,5,1.49,1.51,1.51,0,0,0,3.48,0,3.51,3.51,0,0,0,0,3.5Z"/><path d="M10.39,0a1.5,1.5,0,0,0,0,3h6.9a1.5,1.5,0,0,0,0-3Z"/><path d="M2.31,95.5A1.5,1.5,0,0,0,3.81,97h6.9a1.5,1.5,0,1,0,0-3H3.81A1.5,1.5,0,0,0,2.31,95.5Z"/><path d="M0,21.07a1.5,1.5,0,0,0,3,0v-6.9a1.5,1.5,0,0,0-3,0Z"/><path d="M44.88,0H38a1.5,1.5,0,0,0,0,3h6.9a1.5,1.5,0,0,0,0-3Z"/><path d="M45.21,94a1.5,1.5,0,0,0,0,3h6.9a1.5,1.5,0,1,0,0-3Z"/><path d="M72.48,0h-6.9a1.5,1.5,0,0,0,0,3h6.9a1.5,1.5,0,0,0,0-3Z"/><path d="M59,94a1.5,1.5,0,0,0,0,3h6.9a1.5,1.5,0,0,0,0-3Z"/><path d="M97,41.43a1.5,1.5,0,0,0-3,0v6.9a1.5,1.5,0,0,0,3,0Z"/><path d="M97,82.82a1.5,1.5,0,0,0-3,0v6.9a1.5,1.5,0,0,0,3,0Z"/><path d="M97,55.23a1.5,1.5,0,1,0-3,0v6.89a1.5,1.5,0,1,0,3,0Z"/><path d="M97,69a1.5,1.5,0,1,0-3,0v6.9a1.5,1.5,0,1,0,3,0Z"/><path d="M0,34.86a1.5,1.5,0,0,0,3,0V28a1.5,1.5,0,0,0-3,0Z"/><path d="M86.28,3a1.5,1.5,0,0,0,0-3h-6.9a1.5,1.5,0,0,0,0,3Z"/><path d="M97,27.63a1.5,1.5,0,1,0-3,0v6.9a1.5,1.5,0,0,0,3,0Z"/><path d="M97,3.5A3.5,3.5,0,0,0,93.5,0h-.32a1.5,1.5,0,0,0,0,3h.32a.5.5,0,0,1,.5.5V6.93a1.5,1.5,0,1,0,3,0Z"/><path d="M97,13.83a1.5,1.5,0,1,0-3,0v6.9a1.5,1.5,0,1,0,3,0Z"/><path d="M0,62.46a1.5,1.5,0,0,0,3,0v-6.9a1.5,1.5,0,0,0-3,0Z"/><path d="M95,95.5A1.51,1.51,0,0,0,93.5,94H86.6a1.5,1.5,0,0,0,0,3h6.92A1.5,1.5,0,0,0,95,95.5Z"/><path d="M0,90.06a1.5,1.5,0,0,0,3,0v-6.9a1.5,1.5,0,0,0-3,0Z"/><path d="M0,48.66a1.5,1.5,0,0,0,3,0v-6.9a1.5,1.5,0,0,0-3,0Z"/><path d="M0,76.26a1.5,1.5,0,0,0,3,0v-6.9a1.5,1.5,0,0,0-3,0Z"/><path d="M31.41,94a1.5,1.5,0,1,0,0,3h6.9a1.5,1.5,0,0,0,0-3Z"/><path d="M71.3,95.5A1.5,1.5,0,0,0,72.8,97h6.9a1.5,1.5,0,0,0,0-3H72.8A1.5,1.5,0,0,0,71.3,95.5Z"/></g></g></svg>