<svg xmlns="http://www.w3.org/2000/svg" viewBox="0 0 82.54 97"><title>heading</title><g id="Layer_2" data-name="Layer 2"><g id="Layer_1-2" data-name="Layer 1"><path d="M82.54,8.73A8.74,8.74,0,0,0,73.81,0H8.73A8.74,8.74,0,0,0,0,8.73V19.58a1.5,1.5,0,0,0,3,0V8.73A5.74,5.74,0,0,1,8.73,3h31V34a1.5,1.5,0,0,0,3,0V3h31a5.74,5.74,0,0,1,5.73,5.73V19.58a1.5,1.5,0,0,0,3,0Z"/><path d="M81,53.62a1.5,1.5,0,0,0,0-3H1.5a1.5,1.5,0,0,0,0,3H39.77V94H23.19a1.5,1.5,0,1,0,0,3H59.35a1.5,1.5,0,0,0,0-3H42.77V53.62Z"/></g></g></svg>