<svg xmlns="http://www.w3.org/2000/svg" viewBox="0 0 97 97"><title>icon box</title><g id="Layer_2" data-name="Layer 2"><g id="Layer_1-2" data-name="Layer 1"><path d="M48.49,44.31a5.07,5.07,0,1,0-5.09-5.06A5.09,5.09,0,0,0,48.49,44.31Zm0-7.13a2.07,2.07,0,1,1-2.09,2.07A2.08,2.08,0,0,1,48.49,37.18Z"/><path d="M36.13,43.56a7.64,7.64,0,0,0,2.08,10.06A7.73,7.73,0,0,0,48.5,52.46a7.75,7.75,0,0,0,5.8,2.61,7.6,7.6,0,0,0,6.57-11.52,7.61,7.61,0,0,0-4.73-14.42,7.68,7.68,0,0,0-15.3,0,7.63,7.63,0,0,0-4.71,14.46ZM44,31a4.73,4.73,0,0,1-.18-1.29,4.67,4.67,0,0,1,9.34,0A4.74,4.74,0,0,1,53,31a1.5,1.5,0,0,0,2.28,1.65,4,4,0,0,1,1.18-.53,4.66,4.66,0,0,1,5.87,3v0a4.59,4.59,0,0,1-3,5.76,5.61,5.61,0,0,1-1.35.23,1.49,1.49,0,0,0-.86,2.66,6,6,0,0,1,1,1A4.58,4.58,0,0,1,57,51.19a4.71,4.71,0,0,1-6.53-1A4.37,4.37,0,0,1,49.9,49a1.5,1.5,0,0,0-2.83,0,4.47,4.47,0,0,1-.58,1.13,4.74,4.74,0,0,1-6.58,1,4.57,4.57,0,0,1-1-6.37,5.81,5.81,0,0,1,1-1A1.5,1.5,0,0,0,39,41.15a5.69,5.69,0,0,1-1.32-.22,4.62,4.62,0,0,1-3-5.84h0A4.6,4.6,0,0,1,37,32.4a4.66,4.66,0,0,1,3.57-.26,4,4,0,0,1,1.14.54A1.5,1.5,0,0,0,44,31Z"/><path d="M97,3.5A3.5,3.5,0,0,0,93.5,0H3.5A3.5,3.5,0,0,0,0,3.5v90A3.5,3.5,0,0,0,3.5,97h90A3.5,3.5,0,0,0,97,93.5ZM3,3.5A.5.5,0,0,1,3.5,3h90a.5.5,0,0,1,.5.5v90a.5.5,0,0,1-.5.5H3.5a.5.5,0,0,1-.5-.5Z"/><path d="M25,73H72a1.5,1.5,0,0,0,0-3H25a1.5,1.5,0,0,0,0,3Z"/><path d="M58.29,81.27H38.71a1.5,1.5,0,1,0,0,3H58.29a1.5,1.5,0,1,0,0-3Z"/></g></g></svg>