<svg xmlns="http://www.w3.org/2000/svg" viewBox="0 0 97 91.43"><title>star</title><g id="Layer_2" data-name="Layer 2"><g id="Layer_1-2" data-name="Layer 1"><path d="M95.91,38.35a3.56,3.56,0,0,0-2-6.09L65.05,28.12a.55.55,0,0,1-.42-.3L51.68,2a3.55,3.55,0,0,0-6.36,0l-13,25.85a.55.55,0,0,1-.42.3L3.06,32.26a3.56,3.56,0,0,0-2,6.09L22,58.41a.56.56,0,0,1,.16.49L17.2,87.25a3.52,3.52,0,0,0,1.4,3.48,3.58,3.58,0,0,0,3.74.29L48.24,77.6a.59.59,0,0,1,.52,0L74.66,91a3.49,3.49,0,0,0,3.74-.29,3.52,3.52,0,0,0,1.4-3.48L74.87,58.9a.56.56,0,0,1,.16-.49ZM25.09,59.42a3.58,3.58,0,0,0-1-3.18L3.17,36.19A.54.54,0,0,1,3,35.61a.54.54,0,0,1,.45-.38l28.9-4.14a3.56,3.56,0,0,0,2.68-1.93L48,3.31a.56.56,0,0,1,1,0L61.94,29.16a3.56,3.56,0,0,0,2.68,1.93l28.9,4.14a.54.54,0,0,1,.45.38.54.54,0,0,1-.14.58L73,56.24a3.56,3.56,0,0,0-1,3.18l4.94,28.35a.57.57,0,0,1-.22.54.55.55,0,0,1-.59,0L50.14,74.94a3.52,3.52,0,0,0-3.28,0L21,88.36a.55.55,0,0,1-.59,0,.57.57,0,0,1-.22-.54Z"/></g></g></svg>