<svg xmlns="http://www.w3.org/2000/svg" viewBox="0 0 97 84.04"><title>cart</title><g id="Layer_2" data-name="Layer 2"><g id="Layer_1-2" data-name="Layer 1"><path d="M91.37,10.33H23.65L20.9,1.07A1.5,1.5,0,0,0,19.46,0H1.5a1.5,1.5,0,0,0,0,3H18.35l2.72,9.16L25,50.36a10.09,10.09,0,0,0-.26,20.16A10.39,10.39,0,1,0,45,73.63a10.54,10.54,0,0,0-.47-3.08H64.88a10.55,10.55,0,0,0-.48,3.08,10.38,10.38,0,1,0,20.75,0,10.55,10.55,0,0,0-.48-3.08h3.51a1.5,1.5,0,0,0,0-3H25.29a7.1,7.1,0,1,1,0-14.2H84.82a5.64,5.64,0,0,0,5.51-4.49l6.55-31.77a5.62,5.62,0,0,0-5.51-6.76ZM42,73.63a7.39,7.39,0,1,1-14.78,0,7.26,7.26,0,0,1,.68-3.08H41.36A7.26,7.26,0,0,1,42,73.63Zm40.11,0a7.38,7.38,0,1,1-14.75,0,7.26,7.26,0,0,1,.68-3.08H81.47A7.26,7.26,0,0,1,82.15,73.63ZM94,16.48,87.39,48.25a2.63,2.63,0,0,1-2.57,2.1H28l-3.82-37H91.37a2.62,2.62,0,0,1,2,1A2.67,2.67,0,0,1,94,16.48Z"/></g></g></svg>